<mxfile host="app.diagrams.net" modified="2022-05-09T06:23:51.780Z" agent="5.0 (Windows NT 10.0; Win64; x64) AppleWebKit/537.36 (KHTML, like Gecko) Chrome/101.0.4951.54 Safari/537.36" etag="wIh7OgO-lWg1-ad88Y5X" version="18.0.2" type="github">
  <diagram id="C5RBs43oDa-KdzZeNtuy" name="Page-1">
    <mxGraphModel dx="1022" dy="436" grid="1" gridSize="10" guides="1" tooltips="1" connect="1" arrows="1" fold="1" page="1" pageScale="1" pageWidth="827" pageHeight="1169" math="0" shadow="0">
      <root>
        <mxCell id="WIyWlLk6GJQsqaUBKTNV-0" />
        <mxCell id="WIyWlLk6GJQsqaUBKTNV-1" parent="WIyWlLk6GJQsqaUBKTNV-0" />
        <mxCell id="bHCf5uEe8l9tKa_vkYOb-26" style="edgeStyle=orthogonalEdgeStyle;rounded=0;orthogonalLoop=1;jettySize=auto;html=1;fontSize=14;entryX=0.5;entryY=0;entryDx=0;entryDy=0;" edge="1" parent="WIyWlLk6GJQsqaUBKTNV-1" source="bHCf5uEe8l9tKa_vkYOb-20" target="bHCf5uEe8l9tKa_vkYOb-27">
          <mxGeometry relative="1" as="geometry">
            <mxPoint x="457" y="560" as="targetPoint" />
          </mxGeometry>
        </mxCell>
        <mxCell id="bHCf5uEe8l9tKa_vkYOb-20" value="" style="rounded=1;whiteSpace=wrap;html=1;absoluteArcSize=1;arcSize=14;strokeWidth=2;" vertex="1" parent="WIyWlLk6GJQsqaUBKTNV-1">
          <mxGeometry x="330" y="140" width="255" height="300" as="geometry" />
        </mxCell>
        <mxCell id="bHCf5uEe8l9tKa_vkYOb-11" style="edgeStyle=orthogonalEdgeStyle;rounded=0;orthogonalLoop=1;jettySize=auto;html=1;fontSize=14;" edge="1" parent="WIyWlLk6GJQsqaUBKTNV-1" source="bHCf5uEe8l9tKa_vkYOb-3">
          <mxGeometry relative="1" as="geometry">
            <mxPoint x="330" y="280" as="targetPoint" />
          </mxGeometry>
        </mxCell>
        <mxCell id="bHCf5uEe8l9tKa_vkYOb-3" value="" style="rounded=1;whiteSpace=wrap;html=1;absoluteArcSize=1;arcSize=14;strokeWidth=2;" vertex="1" parent="WIyWlLk6GJQsqaUBKTNV-1">
          <mxGeometry x="50" y="140" width="160" height="280" as="geometry" />
        </mxCell>
        <mxCell id="bHCf5uEe8l9tKa_vkYOb-4" value="讯飞ASR语音识别" style="rounded=1;whiteSpace=wrap;html=1;absoluteArcSize=1;arcSize=14;strokeWidth=2;" vertex="1" parent="WIyWlLk6GJQsqaUBKTNV-1">
          <mxGeometry x="73.75" y="160" width="102.5" height="30" as="geometry" />
        </mxCell>
        <mxCell id="bHCf5uEe8l9tKa_vkYOb-5" value="&lt;font style=&quot;font-size: 14px;&quot;&gt;&lt;b&gt;音箱等设备&lt;/b&gt;&lt;/font&gt;" style="text;html=1;strokeColor=none;fillColor=none;align=center;verticalAlign=middle;whiteSpace=wrap;rounded=0;" vertex="1" parent="WIyWlLk6GJQsqaUBKTNV-1">
          <mxGeometry x="92.5" y="100" width="75" height="30" as="geometry" />
        </mxCell>
        <mxCell id="bHCf5uEe8l9tKa_vkYOb-6" value="百度ASR语音识别" style="rounded=1;whiteSpace=wrap;html=1;absoluteArcSize=1;arcSize=14;strokeWidth=2;" vertex="1" parent="WIyWlLk6GJQsqaUBKTNV-1">
          <mxGeometry x="73.75" y="210" width="102.5" height="30" as="geometry" />
        </mxCell>
        <mxCell id="bHCf5uEe8l9tKa_vkYOb-7" value="右转ASR语音识别" style="rounded=1;whiteSpace=wrap;html=1;absoluteArcSize=1;arcSize=14;strokeWidth=2;" vertex="1" parent="WIyWlLk6GJQsqaUBKTNV-1">
          <mxGeometry x="73.75" y="260" width="102.5" height="30" as="geometry" />
        </mxCell>
        <mxCell id="bHCf5uEe8l9tKa_vkYOb-10" value="其他ASR语音识别" style="rounded=1;whiteSpace=wrap;html=1;absoluteArcSize=1;arcSize=14;strokeWidth=2;" vertex="1" parent="WIyWlLk6GJQsqaUBKTNV-1">
          <mxGeometry x="73.75" y="310" width="102.5" height="30" as="geometry" />
        </mxCell>
        <mxCell id="bHCf5uEe8l9tKa_vkYOb-12" value="识别文本与音频文件" style="text;html=1;strokeColor=none;fillColor=none;align=center;verticalAlign=middle;whiteSpace=wrap;rounded=0;fontSize=14;" vertex="1" parent="WIyWlLk6GJQsqaUBKTNV-1">
          <mxGeometry x="230" y="240" width="80" height="30" as="geometry" />
        </mxCell>
        <mxCell id="bHCf5uEe8l9tKa_vkYOb-13" value="" style="rounded=1;whiteSpace=wrap;html=1;absoluteArcSize=1;arcSize=14;strokeWidth=2;" vertex="1" parent="WIyWlLk6GJQsqaUBKTNV-1">
          <mxGeometry x="370" y="160" width="180" height="220" as="geometry" />
        </mxCell>
        <mxCell id="bHCf5uEe8l9tKa_vkYOb-15" value="讯飞IFlyOs" style="rounded=1;whiteSpace=wrap;html=1;absoluteArcSize=1;arcSize=14;strokeWidth=2;" vertex="1" parent="WIyWlLk6GJQsqaUBKTNV-1">
          <mxGeometry x="413.75" y="180" width="102.5" height="30" as="geometry" />
        </mxCell>
        <mxCell id="bHCf5uEe8l9tKa_vkYOb-16" value="讯飞AIUI" style="rounded=1;whiteSpace=wrap;html=1;absoluteArcSize=1;arcSize=14;strokeWidth=2;" vertex="1" parent="WIyWlLk6GJQsqaUBKTNV-1">
          <mxGeometry x="413.75" y="230" width="102.5" height="30" as="geometry" />
        </mxCell>
        <mxCell id="bHCf5uEe8l9tKa_vkYOb-17" value="百度UNIT" style="rounded=1;whiteSpace=wrap;html=1;absoluteArcSize=1;arcSize=14;strokeWidth=2;" vertex="1" parent="WIyWlLk6GJQsqaUBKTNV-1">
          <mxGeometry x="413.75" y="280" width="102.5" height="30" as="geometry" />
        </mxCell>
        <mxCell id="bHCf5uEe8l9tKa_vkYOb-18" value="公司自身NLP" style="rounded=1;whiteSpace=wrap;html=1;absoluteArcSize=1;arcSize=14;strokeWidth=2;" vertex="1" parent="WIyWlLk6GJQsqaUBKTNV-1">
          <mxGeometry x="413.75" y="330" width="102.5" height="30" as="geometry" />
        </mxCell>
        <mxCell id="bHCf5uEe8l9tKa_vkYOb-21" value="&lt;font style=&quot;font-size: 14px;&quot;&gt;&lt;b&gt;NLP语义解析处理&lt;/b&gt;&lt;/font&gt;" style="text;html=1;strokeColor=none;fillColor=none;align=center;verticalAlign=middle;whiteSpace=wrap;rounded=0;" vertex="1" parent="WIyWlLk6GJQsqaUBKTNV-1">
          <mxGeometry x="403.75" y="100" width="116.25" height="30" as="geometry" />
        </mxCell>
        <mxCell id="bHCf5uEe8l9tKa_vkYOb-22" value="合作伙伴云服务" style="rounded=1;whiteSpace=wrap;html=1;absoluteArcSize=1;arcSize=14;strokeWidth=2;" vertex="1" parent="WIyWlLk6GJQsqaUBKTNV-1">
          <mxGeometry x="370" y="400" width="180" height="30" as="geometry" />
        </mxCell>
        <mxCell id="bHCf5uEe8l9tKa_vkYOb-23" value="&lt;font style=&quot;font-size: 14px;&quot;&gt;&lt;b&gt;公司云服务&lt;/b&gt;&lt;/font&gt;" style="text;html=1;strokeColor=none;fillColor=none;align=center;verticalAlign=middle;whiteSpace=wrap;rounded=0;" vertex="1" parent="WIyWlLk6GJQsqaUBKTNV-1">
          <mxGeometry x="380" y="210" width="13.75" height="110" as="geometry" />
        </mxCell>
        <mxCell id="bHCf5uEe8l9tKa_vkYOb-31" style="edgeStyle=orthogonalEdgeStyle;rounded=0;orthogonalLoop=1;jettySize=auto;html=1;fontSize=14;" edge="1" parent="WIyWlLk6GJQsqaUBKTNV-1" source="bHCf5uEe8l9tKa_vkYOb-27">
          <mxGeometry relative="1" as="geometry">
            <mxPoint x="220" y="660" as="targetPoint" />
          </mxGeometry>
        </mxCell>
        <mxCell id="bHCf5uEe8l9tKa_vkYOb-27" value="" style="rounded=1;whiteSpace=wrap;html=1;absoluteArcSize=1;arcSize=14;strokeWidth=2;" vertex="1" parent="WIyWlLk6GJQsqaUBKTNV-1">
          <mxGeometry x="329.99" y="600" width="255" height="120" as="geometry" />
        </mxCell>
        <mxCell id="bHCf5uEe8l9tKa_vkYOb-28" value="&lt;span style=&quot;font-size: 14px;&quot;&gt;&lt;b&gt;控制中台&lt;/b&gt;&lt;/span&gt;" style="text;html=1;strokeColor=none;fillColor=none;align=center;verticalAlign=middle;whiteSpace=wrap;rounded=0;" vertex="1" parent="WIyWlLk6GJQsqaUBKTNV-1">
          <mxGeometry x="400" y="610" width="116.25" height="30" as="geometry" />
        </mxCell>
        <mxCell id="bHCf5uEe8l9tKa_vkYOb-29" value="解析后的控制指令" style="text;html=1;strokeColor=none;fillColor=none;align=center;verticalAlign=middle;whiteSpace=wrap;rounded=0;fontSize=14;" vertex="1" parent="WIyWlLk6GJQsqaUBKTNV-1">
          <mxGeometry x="470" y="490" width="20" height="50" as="geometry" />
        </mxCell>
        <mxCell id="bHCf5uEe8l9tKa_vkYOb-32" value="控制下发" style="text;html=1;strokeColor=none;fillColor=none;align=center;verticalAlign=middle;whiteSpace=wrap;rounded=0;fontSize=14;" vertex="1" parent="WIyWlLk6GJQsqaUBKTNV-1">
          <mxGeometry x="240" y="620" width="60" height="30" as="geometry" />
        </mxCell>
        <mxCell id="bHCf5uEe8l9tKa_vkYOb-33" value="" style="rounded=1;whiteSpace=wrap;html=1;absoluteArcSize=1;arcSize=14;strokeWidth=2;" vertex="1" parent="WIyWlLk6GJQsqaUBKTNV-1">
          <mxGeometry x="50" y="560" width="160" height="280" as="geometry" />
        </mxCell>
        <mxCell id="bHCf5uEe8l9tKa_vkYOb-34" value="电视系统" style="rounded=1;whiteSpace=wrap;html=1;absoluteArcSize=1;arcSize=14;strokeWidth=2;" vertex="1" parent="WIyWlLk6GJQsqaUBKTNV-1">
          <mxGeometry x="78.75" y="580" width="102.5" height="30" as="geometry" />
        </mxCell>
        <mxCell id="bHCf5uEe8l9tKa_vkYOb-35" value="音箱系统" style="rounded=1;whiteSpace=wrap;html=1;absoluteArcSize=1;arcSize=14;strokeWidth=2;" vertex="1" parent="WIyWlLk6GJQsqaUBKTNV-1">
          <mxGeometry x="78.75" y="630" width="102.5" height="30" as="geometry" />
        </mxCell>
        <mxCell id="bHCf5uEe8l9tKa_vkYOb-36" value="客控主机" style="rounded=1;whiteSpace=wrap;html=1;absoluteArcSize=1;arcSize=14;strokeWidth=2;" vertex="1" parent="WIyWlLk6GJQsqaUBKTNV-1">
          <mxGeometry x="78.75" y="680" width="102.5" height="30" as="geometry" />
        </mxCell>
        <mxCell id="bHCf5uEe8l9tKa_vkYOb-38" value="php控制中心" style="rounded=1;whiteSpace=wrap;html=1;absoluteArcSize=1;arcSize=14;strokeWidth=2;" vertex="1" parent="WIyWlLk6GJQsqaUBKTNV-1">
          <mxGeometry x="350" y="640" width="102.5" height="30" as="geometry" />
        </mxCell>
        <mxCell id="bHCf5uEe8l9tKa_vkYOb-39" value="java控制中心" style="rounded=1;whiteSpace=wrap;html=1;absoluteArcSize=1;arcSize=14;strokeWidth=2;" vertex="1" parent="WIyWlLk6GJQsqaUBKTNV-1">
          <mxGeometry x="470" y="640" width="102.5" height="30" as="geometry" />
        </mxCell>
        <mxCell id="bHCf5uEe8l9tKa_vkYOb-40" value="IOT控制中心" style="rounded=1;whiteSpace=wrap;html=1;absoluteArcSize=1;arcSize=14;strokeWidth=2;" vertex="1" parent="WIyWlLk6GJQsqaUBKTNV-1">
          <mxGeometry x="350" y="680" width="102.5" height="30" as="geometry" />
        </mxCell>
        <mxCell id="bHCf5uEe8l9tKa_vkYOb-41" value="第三方云服务" style="rounded=1;whiteSpace=wrap;html=1;absoluteArcSize=1;arcSize=14;strokeWidth=2;" vertex="1" parent="WIyWlLk6GJQsqaUBKTNV-1">
          <mxGeometry x="470" y="680" width="102.5" height="30" as="geometry" />
        </mxCell>
      </root>
    </mxGraphModel>
  </diagram>
</mxfile>
